HIERARCHY
ROOT hip
{
  OFFSET 0 0 0
  CHANNELS 6 Xposition Yposition Zposition Zrotation Yrotation Xrotation
  JOINT abdomen
  {
    OFFSET 0 20.6881 -0.73152
    CHANNELS 3 Zrotation Xrotation Yrotation
    JOINT chest
    {
      OFFSET 0 11.7043 -0.48768
      CHANNELS 3 Zrotation Xrotation Yrotation
      JOINT neck
      {
        OFFSET 0 22.1894 -2.19456
        CHANNELS 3 Zrotation Xrotation Yrotation
        JOINT head
        {
          OFFSET -0.24384 7.07133 1.2192
          CHANNELS 3 Zrotation Xrotation Yrotation
          JOINT leftEye
          {
            OFFSET 4.14528 8.04674 8.04672
            CHANNELS 3 Zrotation Xrotation Yrotation
            End Site
            {
              OFFSET 1 0 0
            }
          }
          JOINT rightEye
          {
            OFFSET -3.6576 8.04674 8.04672
            CHANNELS 3 Zrotation Xrotation Yrotation
            End Site
            {
              OFFSET 1 0 0
            }
          }
        }
      }
      JOINT rCollar
      {
        OFFSET -2.68224 19.2634 -4.8768
        CHANNELS 3 Zrotation Xrotation Yrotation
        JOINT rShldr
        {
          OFFSET -8.77824 -1.95073 1.46304
          CHANNELS 3 Zrotation Xrotation Yrotation
          JOINT rForeArm
          {
            OFFSET -28.1742 -1.7115 0.48768
            CHANNELS 3 Zrotation Xrotation Yrotation
            JOINT rHand
            {
              OFFSET -22.5879 0.773209 7.07136
              CHANNELS 3 Zrotation Xrotation Yrotation
              JOINT rThumb1
              {
                OFFSET -1.2192 -0.487915 3.41376
                CHANNELS 3 Zrotation Xrotation Yrotation
                JOINT rThumb2
                {
                  OFFSET -3.37035 -0.52449 3.41376
                  CHANNELS 3 Zrotation Xrotation Yrotation
                  End Site
                  {
                    OFFSET -1.78271 -1.18214 1.43049
                  }
                }
              }
              JOINT rIndex1
              {
                OFFSET -7.75947 0.938293 5.60832
                CHANNELS 3 Zrotation Xrotation Yrotation
                JOINT rIndex2
                {
                  OFFSET -2.54057 -0.884171 1.56538
                  CHANNELS 3 Zrotation Xrotation Yrotation
                  End Site
                  {
                    OFFSET -1.62519 -0.234802 1.16502
                  }
                }
              }
              JOINT rMid1
              {
                OFFSET -8.24714 1.18213 3.41376
                CHANNELS 3 Zrotation Xrotation Yrotation
                JOINT rMid2
                {
                  OFFSET -3.10165 -0.590103 1.0647
                  CHANNELS 3 Zrotation Xrotation Yrotation
                  End Site
                  {
                    OFFSET -2.48547 -0.328903 0.83742
                  }
                }
              }
              JOINT rRing1
              {
                OFFSET -8.82822 0.546677 1.51678
                CHANNELS 3 Zrotation Xrotation Yrotation
                JOINT rRing2
                {
                  OFFSET -2.60934 -0.819778 -0.0198488
                  CHANNELS 3 Zrotation Xrotation Yrotation
                  End Site
                  {
                    OFFSET -2.33842 -0.294052 0.168128
                  }
                }
              }
              JOINT rPinky1
              {
                OFFSET -8.27202 -0.0477905 -0.4584
                CHANNELS 3 Zrotation Xrotation Yrotation
                JOINT rPinky2
                {
                  OFFSET -1.82734 -0.647385 -0.700984
                  CHANNELS 3 Zrotation Xrotation Yrotation
                  End Site
                  {
                    OFFSET -1.69225 -0.51767 -0.607171
                  }
                }
              }
            }
          }
        }
      }
      JOINT lCollar
      {
        OFFSET 2.68224 19.2634 -4.8768
        CHANNELS 3 Zrotation Xrotation Yrotation
        JOINT lShldr
        {
          OFFSET 8.77824 -1.95073 1.46304
          CHANNELS 3 Zrotation Xrotation Yrotation
          JOINT lForeArm
          {
            OFFSET 28.1742 -1.7115 0.48768
            CHANNELS 3 Zrotation Xrotation Yrotation
            JOINT lHand
            {
              OFFSET 22.5879 0.773209 7.07136
              CHANNELS 3 Zrotation Xrotation Yrotation
              JOINT lThumb1
              {
                OFFSET 1.2192 -0.487915 3.41376
                CHANNELS 3 Zrotation Xrotation Yrotation
                JOINT lThumb2
                {
                  OFFSET 3.37035 -0.52449 3.41376
                  CHANNELS 3 Zrotation Xrotation Yrotation
                  End Site
                  {
                    OFFSET 1.78271 -1.18214 1.43049
                  }
                }
              }
              JOINT lIndex1
              {
                OFFSET 7.75947 0.938293 5.60832
                CHANNELS 3 Zrotation Xrotation Yrotation
                JOINT lIndex2
                {
                  OFFSET 2.54057 -0.884171 1.56538
                  CHANNELS 3 Zrotation Xrotation Yrotation
                  End Site
                  {
                    OFFSET 1.62519 -0.234802 1.16502
                  }
                }
              }
              JOINT lMid1
              {
                OFFSET 8.24714 1.18213 3.41376
                CHANNELS 3 Zrotation Xrotation Yrotation
                JOINT lMid2
                {
                  OFFSET 3.10165 -0.590103 1.0647
                  CHANNELS 3 Zrotation Xrotation Yrotation
                  End Site
                  {
                    OFFSET 2.48547 -0.328903 0.83742
                  }
                }
              }
              JOINT lRing1
              {
                OFFSET 8.82822 0.546677 1.51678
                CHANNELS 3 Zrotation Xrotation Yrotation
                JOINT lRing2
                {
                  OFFSET 2.60934 -0.819778 -0.0198488
                  CHANNELS 3 Zrotation Xrotation Yrotation
                  End Site
                  {
                    OFFSET 2.33842 -0.294052 0.168128
                  }
                }
              }
              JOINT lPinky1
              {
                OFFSET 8.27202 -0.0477905 -0.4584
                CHANNELS 3 Zrotation Xrotation Yrotation
                JOINT lPinky2
                {
                  OFFSET 1.82734 -0.647385 -0.700984
                  CHANNELS 3 Zrotation Xrotation Yrotation
                  End Site
                  {
                    OFFSET 1.69225 -0.51767 -0.607171
                  }
                }
              }
            }
          }
        }
      }
    }
  }
  JOINT rButtock
  {
    OFFSET -8.77824 4.35084 1.2192
    CHANNELS 3 Zrotation Xrotation Yrotation
    JOINT rThigh
    {
      OFFSET 0 -1.70687 -2.19456
      CHANNELS 3 Zrotation Xrotation Yrotation
      JOINT rShin
      {
        OFFSET 0 -36.8199 0.73152
        CHANNELS 3 Zrotation Xrotation Yrotation
        JOINT rFoot
        {
          OFFSET 0.73152 -45.1104 -5.12064
          CHANNELS 3 Zrotation Xrotation Yrotation
          End Site
          {
            OFFSET -1.1221 -3.69964 12.103
          }
        }
      }
    }
  }
  JOINT lButtock
  {
    OFFSET 8.77824 4.35084 1.2192
    CHANNELS 3 Zrotation Xrotation Yrotation
    JOINT lThigh
    {
      OFFSET 0 -1.70687 -2.19456
      CHANNELS 3 Zrotation Xrotation Yrotation
      JOINT lShin
      {
        OFFSET 0 -36.8199 0.73152
        CHANNELS 3 Zrotation Xrotation Yrotation
        JOINT lFoot
        {
          OFFSET -0.73152 -45.1104 -5.12064
          CHANNELS 3 Zrotation Xrotation Yrotation
          End Site
          {
            OFFSET 1.1221 -3.69964 12.103
          }
        }
      }
    }
  }
}
MOTION
Frames:	4
Frame Time:	0.03333
130.2913 0.2818 25.999100000000002 90.404178 -78.403794 -157.342595 23.515912 25.122501 112.214092 158.569766 19.075787 73.095451 -41.024781 -57.75019 -33.236829 56.966587 63.28286 173.13988 -40.275025 -10.716451 28.695053 -20.101196 2.343226 -13.164433 -2.773766 0.698226 -157.729986 -59.916535 39.578351 -124.482205 -7.085971 -25.824747 110.830956 -60.441223 -45.19859 104.67779 24.24451 -68.056218 -171.802742 164.483867 -57.085518 -42.809443 175.250048 17.893464 -0.437766 -72.804078 7.640804 -157.945797 14.893003 -21.155119 122.556827 -113.897825 -11.772143 -71.706157 162.526383 -24.100382 167.426995 99.444191 -60.746592 -99.916826 88.981997 76.472168 176.005112 161.203674 -66.613538 -15.919578 -132.158233 -19.724962 110.05794 176.558912 -3.475896 80.084127 176.803776 -8.943683 39.142036 -14.113218 -13.910391 -146.024323 -4.672401 -21.766176 -62.70731 -118.1148 1.550023 80.880913 -148.232173 23.450493 72.483924 -105.434211 -11.293498 -166.226907 -80.710011 -2.3573 40.7153 -20.915683 86.443306 -84.249594 178.70492 -4.564737 -22.144275 -36.201809 28.470325 -128.139064 18.734553 -61.667827 -53.58731 39.926561 1.341069 163.958329 32.882626 -8.160521 0.0 174.864485 -0.633133 87.046434 -99.953284 -31.219641 -11.05466 -131.073824 -49.911679 -167.816558 92.608396 50.530147 -11.188955 92.574957 -70.313786 92.42464 -98.438126 -52.050916 26.397031 -75.385327 -8.634785 56.799107
132.6989 0.3209 26.6278 103.886085 -78.389639 -170.081501 26.988899 24.031027 128.646508 155.206685 12.611555 87.395612 -37.452819 -42.464457 -143.093194 -64.350934 3.218029 -25.248293 -40.575313 -10.404389 27.672195 -21.579505 2.918194 -15.225662 106.837677 -38.753712 -69.375633 138.061424 37.695142 35.065019 5.294848 -32.192016 -147.236901 -110.951918 14.122222 -88.345138 37.093494 -72.996403 -162.094477 40.683476 17.956698 106.566313 -177.619856 20.208504 -4.680513 -157.799167 33.062529 -129.675232 31.434112 -13.2015 127.199396 136.067411 -41.967907 -144.174506 164.287828 -24.892905 169.936456 -174.419513 0.813478 -26.040064 105.779136 -36.017347 -117.227544 -2.71489 -43.793621 174.677334 -118.005182 -18.635963 117.008968 67.596572 20.398428 75.462788 5.937438 57.163603 -150.815127 -20.282526 -27.125793 -150.907966 172.081713 7.9909 -25.925719 135.015196 50.892686 64.125537 48.051905 39.987028 168.465725 154.719587 45.66365 130.263274 94.878347 46.131036 179.942319 -166.583057 60.001869 -59.747071 109.897701 -84.423483 -53.021567 20.308274 43.487961 174.755001 -165.890833 5.115617 -164.249945 -62.080142 53.155517 128.58162 61.100389 -2.09657 23.469826 150.859428 -5.183628 -3.514859 106.86898 -40.905443 134.076058 165.575236 16.388773 72.557111 -94.708151 24.452209 7.828765 -161.380455 -13.470236 4.859291 -96.151999 -53.201633 40.417827 -164.892949 -78.582018 15.611719
135.11679999999998 0.3031 27.253 109.475924 -77.122006 -175.819702 31.523759 27.904582 -52.656477 -155.789429 -8.411225 -94.851612 -46.043933 -49.99805 -91.398941 -60.171406 56.470845 -53.024528 -39.542632 -10.317698 28.198116 -21.758829 3.221879 -16.64967 168.591148 33.722898 -39.057563 51.588912 -7.611984 164.514151 -24.323554 -52.088807 -173.126116 -119.202146 7.621307 -66.888237 155.901058 53.038495 -50.011027 -128.878626 -7.955036 -111.745195 40.986765 -37.368748 141.045457 134.533565 55.835001 61.097346 105.934904 46.298957 85.557715 167.408271 33.963129 48.506251 -49.345092 14.880868 21.606043 19.665765 -27.391158 154.197886 75.474785 27.263364 -141.242825 63.297041 -80.533638 -103.783065 -116.9219 -18.45913 119.165549 -115.065725 -12.67541 106.85651 156.928171 -2.903409 27.820063 -82.046427 -61.821235 150.84667 33.018422 -28.573047 -49.3584 -136.392115 5.143424 64.388986 112.601351 62.744896 128.841613 -89.565243 14.932328 125.15916 -139.405334 75.951669 68.936756 94.60877 -48.040498 -60.691138 -54.60733 29.026255 -142.056936 122.612425 46.500992 17.331268 107.693058 35.445633 -91.320725 50.118575 -34.318811 -70.443551 -25.285925 24.568863 -50.538585 -120.042406 -25.940152 38.514245 -104.119105 -27.75413 -73.823501 150.279008 -23.690672 76.741188 113.169262 49.583363 -16.229863 87.521474 -78.792758 -92.43132 105.45268 51.371053 -5.246157 -100.617572 15.079502 118.610992
137.54569999999998 0.2542 27.860400000000002 107.159474 -76.199461 -174.16625 24.891507 27.825295 87.446466 168.857547 26.434667 45.05009 -14.140634 -51.496643 98.694656 55.558324 -34.453737 114.452353 -38.041846 -10.418225 29.626186 -21.015919 3.216063 -17.212798 13.645505 -20.314239 -150.056438 158.185183 22.430338 -29.905993 -19.905414 -58.746637 -170.41832 -117.275574 9.8473 -71.57549 13.131683 -66.611535 172.020993 80.219424 43.970217 48.592563 -153.723848 -51.147831 -25.484266 176.006182 -38.456245 -137.429582 -53.195567 -67.915666 74.798617 -12.833984 -3.207416 -116.21275 -161.636515 -85.581896 -136.259291 168.842714 22.628896 -5.04231 -119.18991 38.213866 4.625776 46.0459 -63.13282 -158.517192 120.266011 11.149995 61.918072 -110.340722 29.581537 -19.549969 153.887947 8.871324 27.498256 -109.834988 -60.00432 123.851278 -1.907965 -21.260255 -60.806831 -71.517245 -25.086586 120.431786 -39.141469 -27.544297 135.793143 -173.370537 -13.110025 3.730005 4.701998 -57.90933 116.055297 21.641707 3.992104 114.825453 159.031175 -61.324704 -14.615003 13.347896 -9.136522 -172.295897 87.700364 25.841859 -74.134349 56.683632 -16.12559 -89.085276 -146.485592 82.10663 -0.0 -6.852095 -78.061584 172.997909 -86.04086 72.55089 125.361523 -177.702894 -55.81329 -120.293085 -169.318086 27.417474 -17.348528 -112.37597 -51.17033 72.218748 -96.088824 59.735521 64.322487 -99.514033 -27.018435 62.866624
